<svg xmlns="http://www.w3.org/2000/svg" version="1.1" xmlns:xlink="http://www.w3.org/1999/xlink" xmlns:svgjs="http://svgjs.dev/svgjs" width="1920" height="880" preserveAspectRatio="none" viewBox="0 0 1920 880"><g mask="url(&quot;#SvgjsMask1026&quot;)" fill="none"><rect width="1920" height="880" x="0" y="0" fill="rgba(255, 255, 255, 0.26)"></rect><path d="M730.76 998.35C974.15 964.32 1105.06 398.87 1507.01 395.23 1908.97 391.59 2083.79 578.76 2283.27 580.03" stroke="rgba(51,121,194,0.58)" stroke-width="2"></path><path d="M628.64 980.08C901.05 899.35 978.68 136.1 1379.49 126.96 1780.31 117.82 1929.15 412.36 2130.35 417.36" stroke="rgba(51,121,194,0.58)" stroke-width="2"></path><path d="M258.52 1047.38C428.17 1038.42 556.44 736.92 862.66 736.23 1168.89 735.54 1164.73 846.23 1466.81 846.23 1768.88 846.23 1917.43 736.68 2070.95 736.23" stroke="rgba(51,121,194,0.58)" stroke-width="2"></path><path d="M461.69 894.92C717.58 868.75 838.58 341.83 1314.18 318.78 1789.77 295.73 1942.92 49.28 2166.66 45.98" stroke="rgba(51,121,194,0.58)" stroke-width="2"></path><path d="M305.82 923.13C543.45 922.8 755.71 795.87 1246.93 789.84 1738.15 783.81 1929.44 368.74 2188.04 358.64" stroke="rgba(51,121,194,0.58)" stroke-width="2"></path></g><defs><mask id="SvgjsMask1026"><rect width="1920" height="880" fill="#ffffff"></rect></mask></defs></svg>